<svg width="156" height="153" viewBox="0 0 156 153" fill="none" xmlns="http://www.w3.org/2000/svg">
<path d="M135.501 120.271C137.238 122.019 140.107 121.863 141.521 119.841C142.57 118.341 143.571 116.793 144.525 115.2C151.593 103.491 155.127 90.5965 155.127 76.5164C155.127 62.4362 151.593 49.6158 144.525 38.0552C137.605 26.3465 128.182 17.1573 116.255 10.4877C104.476 3.81818 91.5187 0.483399 77.3836 0.483399C63.2485 0.483399 50.2914 3.81818 38.5121 10.4877C37.371 11.1338 36.2527 11.8036 35.1572 12.497C33.0073 13.8578 32.7692 16.8608 34.565 18.6684L49.8328 34.037C50.8091 35.0197 52.3273 35.1795 53.5307 34.4981C60.5982 30.3482 68.6228 28.2732 77.6045 28.2732C86.4389 28.2732 94.3899 30.3482 101.457 34.4981C108.672 38.6481 114.267 44.4284 118.243 51.839C122.366 59.1014 124.427 67.3272 124.427 76.5164C124.427 85.8537 122.366 94.2277 118.243 101.638C117.981 102.116 118.058 102.712 118.441 103.098L135.501 120.271Z" fill="white"/>
<path d="M109.926 145.757C112.447 144.62 112.934 141.313 110.98 139.347L95.7185 123.985C94.6076 122.867 92.9656 122.497 91.4526 122.923C87.1068 124.147 82.4908 124.759 77.6045 124.759C68.6228 124.759 60.5982 122.759 53.5307 118.757C46.4631 114.607 40.8679 108.901 36.7452 101.638C32.7697 94.2277 30.782 85.8537 30.782 76.5164C30.782 71.8059 31.2879 67.3595 32.2996 63.1772C32.6575 61.6979 32.2735 60.1212 31.2039 59.0446L14.1498 41.8778C12.2553 39.9708 9.0801 40.3626 7.86841 42.768C2.67765 53.0725 0.0822752 64.3219 0.0822751 76.5164C0.0822751 90.5965 3.54243 103.491 10.4627 115.2C17.3831 126.76 26.7329 135.875 38.5121 142.545C50.2914 149.215 63.2485 152.549 77.3836 152.549C89.0309 152.549 99.8785 150.285 109.926 145.757Z" fill="white"/>
<circle cx="76.9627" cy="76.5051" r="26.6116" fill="#BDFF17"/>
</svg>
