<svg width="22" height="21" viewBox="0 0 22 21" fill="none" xmlns="http://www.w3.org/2000/svg">
<path d="M18.7776 0.0717773H3.02906C1.67076 0.0717773 0.568359 1.17417 0.568359 2.53248V18.281C0.568359 19.6393 1.67076 20.7417 3.02906 20.7417H18.7776C20.1359 20.7417 21.2383 19.6393 21.2383 18.281V2.53248C21.2383 1.17417 20.1359 0.0717773 18.7776 0.0717773ZM6.96619 7.94603V17.2967H4.01335V7.94603H6.96619ZM4.01335 5.22449C4.01335 4.5355 4.60392 4.00891 5.48977 4.00891C6.37562 4.00891 6.93174 4.5355 6.96619 5.22449C6.96619 5.91349 6.41499 6.46961 5.48977 6.46961C4.60392 6.46961 4.01335 5.91349 4.01335 5.22449ZM17.7933 17.2967H14.8404C14.8404 17.2967 14.8404 12.7395 14.8404 12.3753C14.8404 11.391 14.3483 10.4067 13.118 10.3871H13.0786C11.8876 10.3871 11.3955 11.4009 11.3955 12.3753C11.3955 12.8232 11.3955 17.2967 11.3955 17.2967H8.44262V7.94603H11.3955V9.20591C11.3955 9.20591 12.3453 7.94603 14.2548 7.94603C16.2086 7.94603 17.7933 9.28958 17.7933 12.0111V17.2967Z" fill="#676868"/>
</svg>
