<svg width="21" height="21" viewBox="0 0 21 21" fill="none" xmlns="http://www.w3.org/2000/svg">
<path d="M3.58993 0.449707C1.72349 0.449707 0.210449 1.96275 0.210449 3.82918V17.3471C0.210449 19.2135 1.72349 20.7266 3.58993 20.7266H17.1078C18.9743 20.7266 20.4873 19.2135 20.4873 17.3471V3.82918C20.4873 1.96275 18.9743 0.449707 17.1078 0.449707H3.58993ZM4.59698 4.79475H8.42906L11.1504 8.66172L14.4525 4.79475H15.6595L11.6954 9.43587L16.5836 16.3815H12.7524L9.59453 11.895L5.76245 16.3815H4.55549L9.04951 11.1209L4.59698 4.79475ZM6.44513 5.76031L13.2559 15.416H14.7354L7.92459 5.76031H6.44513Z" fill="#676868"/>
</svg>
