<svg width="53" height="28" viewBox="0 0 53 28" fill="none" xmlns="http://www.w3.org/2000/svg">
<rect x="0.334717" width="52" height="28" rx="12.02" fill="#FE8F28"/>
<mask id="path-2-inside-1_1_713" fill="white">
<path fill-rule="evenodd" clip-rule="evenodd" d="M2.24102 5.04196C0.835972 7.00933 0.00927734 9.41812 0.00927734 12.02V15.98C0.00927734 22.6185 5.39081 28 12.0293 28H18.3234L2.24102 5.04196ZM47.4088 25.9904C50.6423 23.8361 52.7727 20.1568 52.7727 15.98V12.02C52.7727 5.38154 47.3912 0 40.7527 0H29.2022L47.4088 25.9904Z"/>
</mask>
<path fill-rule="evenodd" clip-rule="evenodd" d="M2.24102 5.04196C0.835972 7.00933 0.00927734 9.41812 0.00927734 12.02V15.98C0.00927734 22.6185 5.39081 28 12.0293 28H18.3234L2.24102 5.04196ZM47.4088 25.9904C50.6423 23.8361 52.7727 20.1568 52.7727 15.98V12.02C52.7727 5.38154 47.3912 0 40.7527 0H29.2022L47.4088 25.9904Z" fill="#FE8F28"/>
<path d="M2.24102 5.04196L3.06006 4.46822L2.24891 3.31028L1.42725 4.46078L2.24102 5.04196ZM18.3234 28V29H20.2449L19.1424 27.4263L18.3234 28ZM47.4088 25.9904L46.5897 26.5641L47.1502 27.3643L47.9632 26.8226L47.4088 25.9904ZM29.2022 0V-1H27.2807L28.3832 0.573743L29.2022 0ZM1.00928 12.02C1.00928 9.63331 1.76686 7.42653 3.0548 5.62314L1.42725 4.46078C-0.0949139 6.59213 -0.990723 9.20293 -0.990723 12.02H1.00928ZM1.00928 15.98V12.02H-0.990723V15.98H1.00928ZM12.0293 27C5.9431 27 1.00928 22.0662 1.00928 15.98H-0.990723C-0.990723 23.1707 4.83853 29 12.0293 29V27ZM18.3234 27H12.0293V29H18.3234V27ZM19.1424 27.4263L3.06006 4.46822L1.42199 5.6157L17.5044 28.5737L19.1424 27.4263ZM51.7727 15.98C51.7727 19.8084 49.8213 23.1814 46.8543 25.1582L47.9632 26.8226C51.4632 24.4908 53.7727 20.5053 53.7727 15.98H51.7727ZM51.7727 12.02V15.98H53.7727V12.02H51.7727ZM40.7527 1C46.8389 1 51.7727 5.93382 51.7727 12.02H53.7727C53.7727 4.82925 47.9435 -1 40.7527 -1V1ZM29.2022 1H40.7527V-1H29.2022V1ZM28.3832 0.573743L46.5897 26.5641L48.2278 25.4167L30.0212 -0.573743L28.3832 0.573743Z" fill="black" mask="url(#path-2-inside-1_1_713)"/>
<rect x="0.906006" y="1.00043" width="50.9055" height="25.9991" rx="11.1611" fill="#FE8F28"/>
<path d="M16.2286 14.1449C16.2286 14.739 16.1516 15.2692 15.9976 15.7357C15.8436 16.2021 15.6214 16.5959 15.331 16.9172C15.0405 17.2384 14.6885 17.4848 14.2748 17.6565C13.8656 17.8237 13.4014 17.9073 12.8821 17.9073C12.3981 17.9073 11.9536 17.8237 11.5488 17.6565C11.1483 17.4848 10.8007 17.2384 10.5059 16.9172C10.2154 16.5959 9.98881 16.2021 9.82599 15.7357C9.66758 15.2692 9.58837 14.739 9.58837 14.1449C9.58837 13.3528 9.72258 12.6795 9.99101 12.1251C10.2594 11.5662 10.6423 11.1416 11.1395 10.8512C11.6412 10.5563 12.2374 10.4089 12.9283 10.4089C13.5884 10.4089 14.1648 10.5563 14.6577 10.8512C15.1549 11.146 15.54 11.5728 15.8128 12.1317C16.09 12.6861 16.2286 13.3572 16.2286 14.1449ZM10.7237 14.1449C10.7237 14.7258 10.8007 15.2296 10.9547 15.6565C11.1087 16.0833 11.3463 16.4133 11.6676 16.6466C11.9888 16.8798 12.4025 16.9964 12.9085 16.9964C13.4102 16.9964 13.8216 16.8798 14.1428 16.6466C14.4685 16.4133 14.7083 16.0833 14.8623 15.6565C15.0163 15.2296 15.0933 14.7258 15.0933 14.1449C15.0933 13.5684 15.0163 13.0712 14.8623 12.6531C14.7083 12.2307 14.4707 11.9051 14.1494 11.6762C13.8282 11.4474 13.4124 11.333 12.9019 11.333C12.1494 11.333 11.5972 11.5816 11.2451 12.0789C10.8975 12.5761 10.7237 13.2648 10.7237 14.1449ZM22.7369 10.5409V13.5772H26.7699V10.5409H27.8656V17.7753H26.7699V14.5079H22.7369V17.7753H21.6346V10.5409H22.7369ZM32.8954 10.4221C33.7578 10.4221 34.3981 10.6157 34.8161 11.003C35.2342 11.3902 35.4432 12.0085 35.4432 12.8578V17.7753H34.6445L34.4333 16.706H34.3805C34.1781 16.97 33.9669 17.1922 33.7468 17.3726C33.5268 17.5486 33.2716 17.6829 32.9812 17.7753C32.6951 17.8633 32.3431 17.9073 31.9251 17.9073C31.485 17.9073 31.0934 17.8303 30.7501 17.6763C30.4113 17.5222 30.1429 17.289 29.9448 16.9766C29.7512 16.6642 29.6544 16.2681 29.6544 15.7885C29.6544 15.0668 29.9404 14.5123 30.5125 14.1251C31.0846 13.7379 31.9559 13.5266 33.1264 13.4914L34.3739 13.4386V12.9964C34.3739 12.3715 34.2397 11.9337 33.9713 11.6828C33.7028 11.432 33.3244 11.3066 32.8359 11.3066C32.4575 11.3066 32.0967 11.3616 31.7534 11.4716C31.4102 11.5816 31.0846 11.7114 30.7765 11.8611L30.4399 11.0294C30.7655 10.8622 31.1396 10.7191 31.562 10.6003C31.9845 10.4815 32.4289 10.4221 32.8954 10.4221ZM34.3607 14.2109L33.2584 14.2571C32.3563 14.2923 31.7204 14.4397 31.3508 14.6994C30.9812 14.959 30.7963 15.3264 30.7963 15.8017C30.7963 16.2153 30.9217 16.5211 31.1726 16.7192C31.4234 16.9172 31.7556 17.0162 32.1693 17.0162C32.8117 17.0162 33.3376 16.838 33.7468 16.4815C34.1561 16.1251 34.3607 15.5904 34.3607 14.8776V14.2109ZM40.5983 17.9073C39.9471 17.9073 39.3728 17.7731 38.8756 17.5046C38.3783 17.2362 37.9911 16.827 37.7138 16.2769C37.4366 15.7269 37.298 15.0338 37.298 14.1977C37.298 13.322 37.4432 12.6069 37.7336 12.0525C38.0285 11.4936 38.4333 11.08 38.9482 10.8116C39.463 10.5431 40.0483 10.4089 40.704 10.4089C41.0648 10.4089 41.4124 10.4463 41.7469 10.5211C42.0857 10.5915 42.3629 10.6817 42.5785 10.7918L42.2485 11.7092C42.0285 11.6212 41.7733 11.542 41.4828 11.4716C41.1968 11.4012 40.9284 11.366 40.6775 11.366C40.1759 11.366 39.7579 11.4738 39.4234 11.6894C39.0934 11.9051 38.8448 12.2219 38.6775 12.6399C38.5147 13.058 38.4333 13.5728 38.4333 14.1845C38.4333 14.7698 38.5125 15.2692 38.6709 15.6829C38.8338 16.0965 39.0736 16.4133 39.3904 16.6334C39.7117 16.849 40.1121 16.9568 40.5917 16.9568C40.9746 16.9568 41.32 16.9172 41.628 16.838C41.9361 16.7544 42.2155 16.6576 42.4663 16.5475V17.5244C42.2243 17.6477 41.9537 17.7423 41.6544 17.8083C41.3596 17.8743 41.0076 17.9073 40.5983 17.9073Z" fill="white"/>
</svg>
