<svg width="22" height="22" viewBox="0 0 22 22" fill="none" xmlns="http://www.w3.org/2000/svg">
<path d="M7.90713 17.3907C8.29284 18.7882 9.5733 19.8145 11.0935 19.8145H14.619C16.4443 19.8145 17.9241 18.3347 17.9241 16.5093V9.45833C17.9241 7.93817 16.8978 6.6577 15.5003 6.272V12.9838C15.5003 15.4177 13.5273 17.3907 11.0935 17.3907H7.90713Z" fill="#242424"/>
<path d="M7.56797 2.62769C5.74258 2.62769 4.26282 4.10745 4.26282 5.93284V12.9838C4.26282 14.8092 5.74258 16.289 7.56797 16.289H11.0935C12.9188 16.289 14.3986 14.8092 14.3986 12.9838V5.93284C14.3986 4.10745 12.9188 2.62769 11.0935 2.62769H7.56797Z" fill="#242424"/>
</svg>
