<svg width="156" height="153" viewBox="0 0 156 153" fill="none" xmlns="http://www.w3.org/2000/svg">
<path d="M135.501 120.271C137.238 122.019 140.107 121.863 141.52 119.841C142.57 118.341 143.571 116.794 144.525 115.2C151.593 103.491 155.126 90.5966 155.126 76.5164C155.126 62.4362 151.593 49.6159 144.525 38.0553C137.605 26.3465 128.181 17.1574 116.255 10.4878C104.476 3.81824 91.5185 0.48346 77.3834 0.48346C63.2483 0.48346 50.2912 3.81824 38.5119 10.4878C37.3708 11.1339 36.2525 11.8036 35.157 12.497C33.0071 13.8578 32.769 16.8608 34.5648 18.6684L49.8326 34.0371C50.8089 35.0198 52.3271 35.1796 53.5304 34.4982C60.598 30.3483 68.6226 28.2733 77.6043 28.2733C86.4387 28.2733 94.3897 30.3483 101.457 34.4982C108.672 38.6481 114.267 44.4284 118.243 51.8391C122.365 59.1015 124.427 67.3272 124.427 76.5164C124.427 85.8538 122.365 94.2278 118.243 101.638C117.981 102.116 118.058 102.713 118.441 103.098L135.501 120.271Z" fill="#242424"/>
<path d="M109.926 145.757C112.447 144.621 112.933 141.314 110.98 139.348L95.7183 123.985C94.6073 122.867 92.9654 122.497 91.4523 122.923C87.1066 124.147 82.4906 124.76 77.6043 124.76C68.6226 124.76 60.598 122.759 53.5304 118.757C46.4629 114.607 40.8677 108.901 36.745 101.638C32.7695 94.2278 30.7818 85.8538 30.7818 76.5164C30.7818 71.806 31.2877 67.3596 32.2994 63.1772C32.6572 61.6979 32.2733 60.1212 31.2037 59.0446L14.1496 41.8779C12.2551 39.9709 9.07989 40.3626 7.8682 42.768C2.67744 53.0726 0.0820615 64.322 0.0820615 76.5164C0.0820614 90.5966 3.54222 103.491 10.4625 115.2C17.3828 126.76 26.7327 135.875 38.5119 142.545C50.2912 149.215 63.2483 152.549 77.3834 152.549C89.0307 152.549 99.8783 150.285 109.926 145.757Z" fill="#242424"/>
<circle cx="76.9625" cy="76.505" r="26.6116" fill="#FE8F28"/>
</svg>
