<svg width="19" height="19" viewBox="0 0 19 19" fill="none" xmlns="http://www.w3.org/2000/svg">
<path fill-rule="evenodd" clip-rule="evenodd" d="M18.9533 9.69264C18.9533 4.72403 14.9254 0.696167 9.95683 0.696167C4.98822 0.696167 0.960356 4.72403 0.960356 9.69264C0.960356 14.6613 4.98822 18.6891 9.95683 18.6891C11.5371 18.6891 13.0222 18.2817 14.3128 17.5661C14.5512 17.434 14.8342 17.4009 15.0912 17.4918L17.3607 18.2937C18.2164 18.5961 19.0406 17.7718 18.7383 16.9161L17.9031 14.5527C17.8158 14.3056 17.8429 14.0338 17.9628 13.8007C18.5959 12.5692 18.9533 11.1726 18.9533 9.69264ZM13.7467 10.9082C13.1256 10.9082 12.6222 10.4047 12.6222 9.78362C12.6222 9.16254 13.1256 8.65906 13.7467 8.65906C14.3678 8.65906 14.8713 9.16254 14.8713 9.78362C14.8713 10.4047 14.3678 10.9082 13.7467 10.9082ZM8.8702 9.78362C8.8702 10.4047 9.37369 10.9082 9.99476 10.9082C10.6158 10.9082 11.1193 10.4047 11.1193 9.78362C11.1193 9.16254 10.6158 8.65906 9.99476 8.65906C9.37369 8.65906 8.8702 9.16254 8.8702 9.78362ZM6.24281 10.9082C5.62173 10.9082 5.11825 10.4047 5.11825 9.78362C5.11825 9.16254 5.62173 8.65906 6.24281 8.65906C6.86389 8.65906 7.36737 9.16254 7.36737 9.78362C7.36737 10.4047 6.86389 10.9082 6.24281 10.9082Z" fill="#242424"/>
</svg>
