<svg width="22" height="22" viewBox="0 0 22 22" fill="none" xmlns="http://www.w3.org/2000/svg">
<path fill-rule="evenodd" clip-rule="evenodd" d="M19.9533 11.6926C19.9533 6.72403 15.9254 2.69617 10.9568 2.69617C5.98822 2.69617 1.96036 6.72403 1.96036 11.6926C1.96036 16.6613 5.98822 20.6891 10.9568 20.6891C12.5371 20.6891 14.0222 20.2817 15.3128 19.5661C15.5512 19.434 15.8342 19.4009 16.0912 19.4918L18.3607 20.2937C19.2164 20.5961 20.0406 19.7718 19.7383 18.9161L18.9031 16.5527C18.8158 16.3056 18.8429 16.0338 18.9628 15.8007C19.5959 14.5692 19.9533 13.1726 19.9533 11.6926ZM14.7467 12.9082C14.1256 12.9082 13.6222 12.4047 13.6222 11.7836C13.6222 11.1625 14.1256 10.6591 14.7467 10.6591C15.3678 10.6591 15.8713 11.1625 15.8713 11.7836C15.8713 12.4047 15.3678 12.9082 14.7467 12.9082ZM9.8702 11.7836C9.8702 12.4047 10.3737 12.9082 10.9948 12.9082C11.6158 12.9082 12.1193 12.4047 12.1193 11.7836C12.1193 11.1625 11.6158 10.6591 10.9948 10.6591C10.3737 10.6591 9.8702 11.1625 9.8702 11.7836ZM7.24281 12.9082C6.62173 12.9082 6.11825 12.4047 6.11825 11.7836C6.11825 11.1625 6.62173 10.6591 7.24281 10.6591C7.86389 10.6591 8.36737 11.1625 8.36737 11.7836C8.36737 12.4047 7.86389 12.9082 7.24281 12.9082Z" fill="#242424"/>
</svg>
