<svg width="22" height="22" viewBox="0 0 22 22" fill="none" xmlns="http://www.w3.org/2000/svg">
<path d="M19.2243 8.69388V7.06334C19.2243 5.11626 17.6459 3.53784 15.6988 3.53784H14.0683M19.2243 14.2465V15.8771C19.2243 17.8241 17.6459 19.4026 15.6988 19.4026H14.0683M8.51565 19.4026H6.88511C4.93804 19.4026 3.35962 17.8241 3.35962 15.8771V14.2465M3.35962 8.69388V7.06334C3.35962 5.11626 4.93804 3.53784 6.88511 3.53784H8.51565" stroke="#242424" stroke-width="1.32206" stroke-linecap="round"/>
<path d="M19.9906 11.4089L2.46704 11.4089" stroke="#242424" stroke-width="1.32206" stroke-linecap="round" stroke-linejoin="round"/>
<path fill-rule="evenodd" clip-rule="evenodd" d="M6.00415 8.82552C6.00415 7.36521 7.18796 6.1814 8.64827 6.1814H13.9365C15.3968 6.1814 16.5806 7.36521 16.5806 8.82552V9.86998L6.00415 9.86998V8.82552ZM6.00415 11.192V11.6219L16.5806 11.6219V11.192L6.00415 11.192ZM6.00415 12.944L16.5806 12.944V14.1138C16.5806 15.5741 15.3968 16.7579 13.9365 16.7579H8.64827C7.18796 16.7579 6.00415 15.5741 6.00415 14.1138V12.944Z" fill="#242424"/>
</svg>
