<svg width="176" height="154" viewBox="0 0 176 154" fill="none" xmlns="http://www.w3.org/2000/svg">
<path d="M162.981 51.065V35.6913C162.981 17.3332 148.099 2.45093 129.741 2.45093H114.367M162.981 103.419V118.792C162.981 137.15 148.099 152.033 129.741 152.033H114.367M62.0133 152.033H46.6396C28.2815 152.033 13.3992 137.15 13.3992 118.792V103.419M13.3992 51.065V35.6913C13.3992 17.3332 28.2815 2.45093 46.6396 2.45093H62.0133" stroke="#242424" stroke-width="3.00404" stroke-linecap="round"/>
<path opacity="0.3" d="M38.3348 52.3066C38.3348 38.5379 49.4965 27.3763 63.2651 27.3763H113.126C126.894 27.3763 138.056 38.5379 138.056 52.3066V102.167C138.056 115.936 126.894 127.097 113.126 127.097H63.2651C49.4965 127.097 38.3348 115.936 38.3348 102.167V52.3066Z" fill="#FE8F28"/>
<path d="M170.213 77.4032L4.99109 77.4032" stroke="white" stroke-width="9.76313" stroke-linecap="round" stroke-linejoin="round"/>
<path d="M170.213 77.4032L4.99109 77.4032" stroke="#242424" stroke-width="3.00404" stroke-linecap="round" stroke-linejoin="round"/>
</svg>
