<svg width="92" height="92" viewBox="0 0 92 92" fill="none" xmlns="http://www.w3.org/2000/svg">
<path fill-rule="evenodd" clip-rule="evenodd" d="M18.0018 24.3029C16.7973 24.9721 16.0502 26.2418 16.0502 27.6198V45.2207C16.0502 59.0007 23.521 71.6975 35.5669 78.3897L44.5626 83.3873C45.7086 84.024 47.102 84.024 48.248 83.3873L57.2437 78.3897C69.2896 71.6975 76.7605 59.0007 76.7605 45.2207V27.6198C76.7605 26.2418 76.0134 24.9721 74.8088 24.3029L48.248 9.54693C47.102 8.91026 45.7086 8.91026 44.5626 9.54692L18.0018 24.3029ZM35.5395 47.847L43.1283 55.4358C43.8903 56.1978 45.1259 56.1978 45.888 55.4358L61.0655 40.2582C61.8276 39.4961 61.8276 38.2606 61.0655 37.4985C60.3035 36.7364 59.0679 36.7364 58.3058 37.4985L44.5081 51.2962L38.2992 45.0873C37.5371 44.3252 36.3016 44.3252 35.5395 45.0873C34.7774 45.8493 34.7774 47.0849 35.5395 47.847Z" fill="white"/>
</svg>
