<svg width="181" height="180" viewBox="0 0 181 180" fill="none" xmlns="http://www.w3.org/2000/svg">
<path fill-rule="evenodd" clip-rule="evenodd" d="M30.6404 52.6244C30.6404 49.9069 32.1137 47.4031 34.4892 46.0833L86.8684 16.9838C89.1284 15.7282 91.8764 15.7282 94.1363 16.9838L146.516 46.0833C148.891 47.4031 150.364 49.9069 150.364 52.6244V87.3344C150.364 114.509 135.631 139.548 111.876 152.745L94.1363 162.601C91.8763 163.857 89.1284 163.856 86.8684 162.601L69.1284 152.745C45.3733 139.548 30.6404 114.509 30.6404 87.3344V52.6244ZM90.5025 108.702C86.146 108.702 82.6143 105.17 82.6143 100.814L82.6143 48.6919L82.6143 42.9294C82.6143 38.5729 86.146 35.0412 90.5025 35.0412C94.859 35.0412 98.3907 38.5729 98.3907 42.9294V48.6918L98.3907 100.814C98.3907 105.17 94.8591 108.702 90.5025 108.702ZM82.6143 126.939C82.6143 131.296 86.146 134.827 90.5025 134.827C94.8591 134.827 98.3907 131.296 98.3907 126.939V125.343C98.3907 120.986 94.8591 117.455 90.5025 117.455C86.146 117.455 82.6143 120.986 82.6143 125.343V126.939Z" fill="white"/>
</svg>
